<svg width="10.000000" height="12.000072" viewBox="0 0 10 12.0001" fill="none" xmlns="http://www.w3.org/2000/svg" xmlns:xlink="http://www.w3.org/1999/xlink">
	<desc>
			Created with Pixso.
	</desc>
	<defs/>
	<path id="Vector (Stroke)" d="M5.47 0.21C5.87 0.56 5.94 1.19 5.62 1.62L2.37 6L5.62 10.37C5.94 10.8 5.87 11.43 5.47 11.78C5.07 12.12 4.49 12.05 4.17 11.62L0 6L4.17 0.37C4.49 -0.06 5.07 -0.13 5.47 0.21ZM9.65 0.21C10.05 0.56 10.11 1.19 9.79 1.62L6.54 6L9.79 10.37C10.11 10.8 10.05 11.43 9.65 11.78C9.25 12.12 8.66 12.05 8.34 11.62L4.17 6L8.34 0.37C8.66 -0.06 9.25 -0.13 9.65 0.21Z" fill="#999999" fill-opacity="1.000000" fill-rule="evenodd"/>
</svg>
