<svg width="49.000000" height="26.000000" viewBox="0 0 49 26" fill="none" xmlns="http://www.w3.org/2000/svg" xmlns:xlink="http://www.w3.org/1999/xlink">
	<desc>
			Created with Pixso.
	</desc>
	<defs/>
	<path id="Vector" d="M49 26L0 26L24.5 0L49 26ZM13.3 13.13L16.64 16.67L19.98 13.13L16.64 9.58L13.3 13.13ZM16.64 25L19.98 21.46L16.64 17.91L13.3 21.46L16.64 25ZM32.4 25L35.74 21.46L32.4 17.91L29.01 21.46L32.4 25ZM28.46 5.4C28.44 5.43 28.42 5.46 28.38 5.49C27.35 6.61 26.29 7.73 25.23 8.84C25.14 8.94 25.23 9 25.23 9.08L28.3 12.35L28.45 12.49L31.79 8.96L28.46 5.4ZM8.78 25L8.91 24.86L11.99 21.61C12.04 21.57 12.07 21.51 12.07 21.46C12.07 21.4 12.04 21.34 11.99 21.3C11.06 20.34 10.15 19.36 9.23 18.38L8.78 17.91L5.45 21.46L8.78 25ZM17.23 8.95L20.57 12.49L20.67 12.39L23.81 9.06C23.92 8.95 23.81 8.89 23.81 8.8L20.74 5.56L20.61 5.42L17.23 8.95ZM17.23 17.32L20.57 20.86L20.74 20.7C21.74 19.65 22.75 18.6 23.76 17.48C23.79 17.46 23.81 17.44 23.83 17.41C23.84 17.38 23.85 17.35 23.85 17.32C23.85 17.29 23.84 17.26 23.83 17.23C23.81 17.2 23.79 17.18 23.76 17.16C22.81 16.16 21.87 15.17 20.93 14.16L20.57 13.79L17.23 17.32ZM32.99 17.32L36.33 20.86L39.67 17.32L36.33 13.79L32.99 17.32ZM28.46 13.78L28.46 13.85L25.3 17.21C25.19 17.3 25.23 17.37 25.3 17.45L28.24 20.59C28.32 20.69 28.41 20.78 28.52 20.89L31.85 17.35L28.46 13.78ZM12.72 20.84C12.74 20.81 12.76 20.78 12.79 20.76L15.96 17.4C16.05 17.29 15.96 17.24 15.96 17.16L12.84 13.89C12.8 13.84 12.75 13.8 12.7 13.76L9.37 17.29L12.72 20.84ZM32.35 16.65L35.69 13.12L32.35 9.59L29.01 13.13L32.35 16.65ZM24.47 8.28L27.81 4.74L24.52 1.27L24.46 1.27L21.25 4.71C21.23 4.73 21.22 4.76 21.22 4.79C21.22 4.82 21.23 4.85 21.25 4.87L24.47 8.28ZM24.47 16.65L27.81 13.12L24.5 9.58L21.16 13.13L24.47 16.65ZM24.47 25.03L27.81 21.49L24.47 17.94L21.16 21.46L24.47 25.03ZM40.23 25.03L43.57 21.49L40.25 17.97L40.18 17.97L36.96 21.36C36.86 21.47 36.96 21.52 36.96 21.6L39.59 24.43L40.23 25.03ZM1.89 25.23L7.88 25.23L4.91 22.09L1.89 25.23ZM41.17 25.23L47.1 25.23L44.13 22.09L41.17 25.23ZM23.55 25.23L20.57 22.09L17.59 25.23L23.55 25.23ZM33.31 25.23L39.25 25.23L36.28 22.09L33.31 25.23ZM31.39 25.23L28.42 22.09L25.45 25.23L31.39 25.23ZM15.63 25.23L12.66 22.09L9.69 25.23L15.63 25.23Z" fill="#FFFFFF" fill-opacity="1.000000" fill-rule="nonzero"/>
</svg>
