<svg width="10.000000" height="12.000072" viewBox="0 0 10 12.0001" fill="none" xmlns="http://www.w3.org/2000/svg" xmlns:xlink="http://www.w3.org/1999/xlink">
	<desc>
			Created with Pixso.
	</desc>
	<defs/>
	<path id="Vector (Stroke)" d="M0.34 0.21C0.74 -0.13 1.33 -0.06 1.65 0.37L5.82 6L1.65 11.62C1.33 12.05 0.74 12.12 0.34 11.78C-0.06 11.43 -0.12 10.8 0.2 10.37L3.45 6L0.2 1.62C-0.12 1.19 -0.06 0.56 0.34 0.21ZM4.52 0.21C4.92 -0.13 5.5 -0.06 5.82 0.37L10 6L5.82 11.62C5.5 12.05 4.92 12.12 4.52 11.78C4.12 11.43 4.05 10.8 4.37 10.37L7.62 6L4.37 1.62C4.05 1.19 4.12 0.56 4.52 0.21Z" fill="#999999" fill-opacity="1.000000" fill-rule="evenodd"/>
</svg>
